<?xml version="1.0" standalone="no"?>
<!DOCTYPE svg PUBLIC "-//W3C//DTD SVG 20010904//EN"
 "http://www.w3.org/TR/2001/REC-SVG-20010904/DTD/svg10.dtd">
<svg version="1.0" xmlns="http://www.w3.org/2000/svg"
 width="768.000000pt" height="1280.000000pt" viewBox="0 0 768.000000 1280.000000"
 preserveAspectRatio="xMidYMid meet">
<metadata>
Created by potrace 1.15, written by Peter Selinger 2001-2017
</metadata>
<g transform="translate(0.000000,1280.000000) scale(0.100000,-0.100000)"
fill="#000000" stroke="none">
<path d="M3967 12655 c-4 -8 -14 -15 -22 -15 -9 0 -13 5 -10 10 11 17 -7 11
-20 -7 -8 -11 -25 -17 -49 -16 -20 1 -36 -3 -36 -8 0 -5 -9 -9 -20 -9 -11 0
-20 -5 -20 -11 0 -7 -10 -9 -25 -5 -27 7 -79 -19 -69 -35 3 -5 -2 -9 -10 -9
-8 0 -21 -6 -28 -12 -7 -7 -19 -13 -25 -14 -7 -1 -21 -2 -31 -2 -10 -1 -26
-15 -35 -32 -10 -16 -24 -30 -31 -30 -12 0 -69 -71 -94 -119 -7 -14 -17 -45
-23 -70 -5 -25 -14 -55 -19 -66 -10 -21 -28 -104 -37 -170 -4 -26 -17 -53 -39
-78 -19 -20 -34 -41 -34 -46 0 -14 40 -100 49 -106 5 -3 14 -19 20 -35 9 -29
7 -33 -42 -80 -28 -27 -49 -51 -46 -54 3 -3 17 6 33 20 15 14 30 23 33 20 4
-3 17 3 29 15 l23 21 -4 -42 c-2 -23 -1 -39 3 -36 3 4 14 -26 23 -66 26 -109
52 -176 70 -181 12 -3 16 -13 13 -33 -3 -21 -2 -24 4 -11 6 14 13 -1 30 -59
13 -43 33 -91 44 -107 31 -43 56 -177 70 -364 9 -117 9 -168 1 -185 -15 -33
-201 -111 -313 -132 -115 -21 -178 -54 -244 -128 -71 -78 -121 -182 -191 -395
-31 -94 -67 -186 -80 -205 -71 -97 -105 -156 -105 -181 0 -20 -6 -30 -20 -34
-11 -3 -20 -13 -20 -22 0 -9 -9 -22 -20 -29 -11 -7 -20 -23 -20 -36 0 -13 -20
-57 -45 -97 -46 -75 -105 -206 -105 -233 0 -9 -4 -16 -10 -16 -5 0 -10 7 -10
14 0 38 -60 198 -136 364 -156 339 -182 442 -184 732 -3 274 -12 370 -37 370
-40 0 -83 -64 -83 -125 0 -17 -16 -40 -47 -71 -47 -45 -47 -45 -102 -38 -84
10 -113 27 -177 101 -33 37 -62 69 -66 71 -5 2 -8 19 -8 38 0 33 -12 45 -25
23 -4 -5 -18 8 -33 30 -46 71 -62 53 -62 -67 0 -60 -4 -80 -19 -96 -11 -13
-21 -43 -24 -78 -5 -55 -4 -58 41 -120 57 -77 68 -85 162 -123 42 -17 97 -43
123 -58 39 -23 47 -33 52 -65 3 -20 15 -73 26 -117 10 -44 57 -244 103 -445
88 -386 121 -492 213 -677 61 -125 114 -184 179 -202 116 -32 188 17 422 287
63 74 121 136 128 139 7 2 26 -3 42 -11 25 -13 31 -23 36 -63 3 -27 5 -55 6
-63 0 -68 -2 -90 -11 -95 -5 -4 -9 -35 -9 -70 0 -58 2 -63 24 -69 19 -5 23
-12 22 -43 -1 -31 -5 -38 -21 -38 -18 0 -20 -8 -23 -64 -2 -48 1 -68 14 -82
16 -18 12 -30 -79 -231 -155 -346 -169 -404 -172 -688 -2 -159 -8 -234 -33
-405 -17 -115 -38 -273 -48 -350 -30 -252 -8 -642 44 -776 6 -16 7 -42 2 -65
-4 -22 -10 -63 -13 -91 -6 -49 -4 -53 18 -59 13 -3 32 -3 43 0 30 10 35 -45
16 -181 -33 -241 8 -397 119 -449 82 -38 173 -27 210 26 8 12 17 18 20 13 15
-25 87 -346 101 -453 9 -69 21 -157 26 -195 14 -104 35 -160 138 -370 71 -144
98 -211 112 -275 30 -137 34 -194 17 -221 -15 -25 -36 -126 -34 -169 0 -14
-12 -95 -27 -180 -47 -264 -53 -319 -60 -525 -4 -116 -13 -221 -21 -250 -8
-27 -16 -79 -20 -115 -6 -65 -32 -205 -60 -330 -25 -110 -46 -240 -41 -248 7
-11 -27 -140 -47 -179 -9 -17 -28 -71 -42 -120 -27 -93 -47 -119 -138 -179
-33 -22 -38 -29 -33 -52 9 -37 48 -69 94 -77 l39 -6 -9 -47 c-4 -26 -8 -85 -7
-132 1 -102 -22 -239 -56 -341 -47 -138 -60 -198 -81 -376 -6 -47 -4 -52 19
-67 44 -29 94 -32 129 -6 l30 22 14 -21 c20 -29 68 -28 88 1 12 17 18 20 28
10 16 -16 53 -15 71 2 8 8 24 12 39 9 14 -3 36 1 49 8 13 7 35 12 49 11 14 -1
31 1 38 6 11 8 40 75 62 143 9 31 6 540 -5 690 -10 136 -6 153 44 173 70 27
157 37 188 20 19 -10 55 -14 108 -13 44 1 104 -4 134 -10 113 -23 232 -7 285
40 45 39 56 86 55 230 -2 131 -12 194 -35 220 -23 26 -35 125 -24 194 8 50 6
79 -10 160 -40 198 -44 261 -30 512 10 179 11 242 2 271 -16 54 -15 215 3 287
17 69 20 290 5 350 -6 22 -13 56 -15 75 -8 56 -36 144 -50 160 -8 8 -30 53
-51 100 -36 82 -37 91 -42 220 -3 92 3 208 17 363 26 273 45 390 106 643 41
172 50 196 85 243 42 56 76 136 93 221 7 36 28 82 62 135 64 100 68 112 105
314 17 91 53 258 80 371 76 316 88 426 70 625 -14 163 -35 261 -98 456 -28 85
-62 208 -77 274 -43 188 -90 300 -205 482 -29 47 -31 55 -21 84 13 38 15 109
2 109 -15 0 0 44 25 70 32 35 61 119 44 130 -9 6 -9 12 0 29 6 12 10 35 8 51
-2 18 4 34 13 42 18 14 79 102 79 113 0 4 15 28 34 54 50 68 84 141 116 250
16 53 43 130 59 171 24 60 31 71 37 55 4 -11 23 -58 41 -105 19 -47 43 -136
54 -199 29 -165 58 -214 178 -296 118 -80 162 -74 280 43 99 97 151 215 151
339 0 29 3 53 6 53 3 0 17 -9 31 -20 30 -23 46 -25 72 -8 15 9 25 9 46 0 41
-19 79 -15 105 13 19 20 29 23 64 19 33 -5 56 1 117 29 75 35 75 35 100 16 13
-11 41 -29 63 -40 21 -11 62 -40 92 -65 104 -84 152 -93 139 -26 -8 46 -44 87
-177 207 -101 91 -108 99 -108 135 0 48 -21 67 -55 52 -21 -10 -27 -7 -58 27
-42 46 -52 73 -38 100 15 27 93 51 182 55 41 2 92 11 113 20 49 21 88 62 84
89 -4 29 -44 34 -173 26 -55 -4 -152 -7 -216 -8 -161 -1 -266 -23 -357 -73
-105 -58 -225 -149 -270 -207 -37 -46 -40 -48 -46 -28 -3 12 -6 45 -6 74 0 28
-9 97 -20 153 -11 56 -20 112 -20 124 0 12 -11 44 -24 70 -28 56 -31 69 -51
248 -23 211 -46 290 -112 382 -24 33 -40 71 -49 114 -7 36 -16 73 -19 83 -13
40 14 17 31 -26 25 -67 27 -48 3 29 -11 38 -18 70 -16 72 7 7 66 -142 81 -204
15 -62 43 -132 52 -132 3 0 3 11 0 24 -4 15 -1 26 6 28 9 3 8 14 -5 40 -9 19
-24 69 -32 109 -29 143 -55 236 -84 309 -16 41 -29 82 -28 90 0 18 -56 113
-94 157 -15 18 -62 101 -103 185 -42 84 -92 182 -111 217 -38 69 -44 105 -20
115 9 3 15 0 15 -9 0 -8 3 -15 8 -14 9 0 60 107 54 114 -3 3 -16 5 -28 5 -26
0 -51 34 -34 45 14 9 110 -4 110 -15 0 -4 -8 -18 -18 -31 -20 -25 -29 -45 -43
-94 -8 -28 -8 -29 7 -10 8 11 19 19 23 18 7 -2 23 27 55 100 23 53 21 57 -21
57 -54 1 -121 33 -126 62 -38 210 -73 332 -90 321 -6 -3 -7 -1 -3 5 7 12 -28
68 -77 122 -18 19 -31 37 -29 39 2 2 -16 12 -40 23 -23 10 -50 26 -60 35 -11
10 -26 13 -43 9 -16 -4 -24 -3 -21 3 4 5 2 13 -4 16 -10 6 -105 23 -160 29
-14 1 -37 10 -51 20 -24 15 -27 15 -32 1z m653 -805 c0 -5 -4 -10 -10 -10 -5
0 -10 5 -10 10 0 6 5 10 10 10 6 0 10 -4 10 -10z m270 -835 c0 -5 -5 -3 -10 5
-5 8 -10 20 -10 25 0 6 5 3 10 -5 5 -8 10 -19 10 -25z m47 -149 c-4 -11 -37
79 -36 98 0 6 9 -11 20 -38 11 -27 18 -54 16 -60z m-1099 -8903 c16 -28 15
-85 -1 -126 -18 -43 -92 -113 -166 -160 -34 -20 -61 -34 -61 -31 0 33 42 147
90 245 33 67 60 128 60 136 0 8 12 42 28 75 l27 60 5 -88 c3 -49 11 -99 18
-111z m-261 -1020 c-3 -10 -5 -2 -5 17 0 19 2 27 5 18 2 -10 2 -26 0 -35z"/>
<path d="M3336 11630 c-14 -22 -23 -40 -19 -40 12 1 66 80 55 80 -5 0 -21 -18
-36 -40z"/>
<path d="M3155 11580 c-3 -6 1 -7 9 -4 18 7 21 14 7 14 -6 0 -13 -4 -16 -10z"/>
<path d="M3464 11308 c2 -36 -2 -47 -25 -68 -17 -16 -29 -39 -32 -63 -5 -33
-3 -39 23 -52 18 -9 29 -22 27 -33 -1 -9 3 -17 8 -17 6 0 9 10 7 22 -2 15 6
25 28 35 25 10 30 19 30 46 0 25 -6 35 -26 44 -21 10 -25 18 -23 47 3 56 0 81
-10 81 -6 0 -9 -19 -7 -42z"/>
</g>
</svg>
